<svg width="200" height="200" viewBox="0 0 200 200" xmlns="http://www.w3.org/2000/svg">
  <defs>
    <linearGradient id="grad1" x1="0%" y1="0%" x2="100%" y2="100%">
      <stop offset="0%" style="stop-color:#ff6b9d;stop-opacity:1" />
      <stop offset="100%" style="stop-color:#c44569;stop-opacity:1" />
    </linearGradient>
    <linearGradient id="grad2" x1="0%" y1="0%" x2="100%" y2="100%">
      <stop offset="0%" style="stop-color:#a8dadc;stop-opacity:1" />
      <stop offset="100%" style="stop-color:#457b9d;stop-opacity:1" />
    </linearGradient>
  </defs>

  <!-- Background circle -->
  <circle cx="100" cy="100" r="95" fill="url(#grad2)" opacity="0.2"/>

  <!-- Magnifying glass handle -->
  <rect x="130" y="130" width="50" height="12" rx="6" fill="url(#grad1)" transform="rotate(45 130 130)"/>

  <!-- Magnifying glass circle -->
  <circle cx="90" cy="90" r="50" fill="none" stroke="url(#grad1)" stroke-width="8"/>

  <!-- Anime eye inside magnifying glass -->
  <ellipse cx="90" cy="85" rx="20" ry="25" fill="white"/>
  <ellipse cx="90" cy="85" rx="12" ry="17" fill="url(#grad2)"/>
  <ellipse cx="88" cy="80" rx="5" ry="7" fill="white"/>

  <!-- Sparkles -->
  <path d="M 50 30 L 52 38 L 60 40 L 52 42 L 50 50 L 48 42 L 40 40 L 48 38 Z" fill="#ff6b9d" opacity="0.8"/>
  <path d="M 140 50 L 142 56 L 148 58 L 142 60 L 140 66 L 138 60 L 132 58 L 138 56 Z" fill="#a8dadc" opacity="0.8"/>
  <path d="M 30 120 L 31 124 L 35 125 L 31 126 L 30 130 L 29 126 L 25 125 L 29 124 Z" fill="#ff6b9d" opacity="0.6"/>
</svg>
